<svg id="visual" viewBox="0 0 900 600" width="900" height="600" xmlns="http://www.w3.org/2000/svg" xmlns:xlink="http://www.w3.org/1999/xlink" version="1.1"><path d="M0 37L12.5 42C25 47 50 57 75 64C100 71 125 75 150 75C175 75 200 71 225 69C250 67 275 67 300 68C325 69 350 71 375 69C400 67 425 61 450 63C475 65 500 75 525 74C550 73 575 61 600 59C625 57 650 65 675 65C700 65 725 57 750 55C775 53 800 57 825 62C850 67 875 73 887.5 76L900 79L900 0L887.5 0C875 0 850 0 825 0C800 0 775 0 750 0C725 0 700 0 675 0C650 0 625 0 600 0C575 0 550 0 525 0C500 0 475 0 450 0C425 0 400 0 375 0C350 0 325 0 300 0C275 0 250 0 225 0C200 0 175 0 150 0C125 0 100 0 75 0C50 0 25 0 12.5 0L0 0Z" fill="#3d0000"></path><path d="M0 175L12.5 177C25 179 50 183 75 175C100 167 125 147 150 142C175 137 200 147 225 157C250 167 275 177 300 177C325 177 350 167 375 161C400 155 425 153 450 155C475 157 500 163 525 171C550 179 575 189 600 182C625 175 650 151 675 142C700 133 725 139 750 139C775 139 800 133 825 139C850 145 875 163 887.5 172L900 181L900 77L887.5 74C875 71 850 65 825 60C800 55 775 51 750 53C725 55 700 63 675 63C650 63 625 55 600 57C575 59 550 71 525 72C500 73 475 63 450 61C425 59 400 65 375 67C350 69 325 67 300 66C275 65 250 65 225 67C200 69 175 73 150 73C125 73 100 69 75 62C50 55 25 45 12.5 40L0 35Z" fill="#4e0004"></path><path d="M0 307L12.5 307C25 307 50 307 75 311C100 315 125 323 150 319C175 315 200 299 225 293C250 287 275 291 300 291C325 291 350 287 375 291C400 295 425 307 450 314C475 321 500 323 525 325C550 327 575 329 600 322C625 315 650 299 675 287C700 275 725 267 750 274C775 281 800 303 825 314C850 325 875 325 887.5 325L900 325L900 179L887.5 170C875 161 850 143 825 137C800 131 775 137 750 137C725 137 700 131 675 140C650 149 625 173 600 180C575 187 550 177 525 169C500 161 475 155 450 153C425 151 400 153 375 159C350 165 325 175 300 175C275 175 250 165 225 155C200 145 175 135 150 140C125 145 100 165 75 173C50 181 25 177 12.5 175L0 173Z" fill="#5f0007"></path><path d="M0 451L12.5 457C25 463 50 475 75 471C100 467 125 447 150 445C175 443 200 459 225 464C250 469 275 463 300 466C325 469 350 481 375 490C400 499 425 505 450 498C475 491 500 471 525 469C550 467 575 483 600 481C625 479 650 459 675 454C700 449 725 459 750 466C775 473 800 477 825 473C850 469 875 457 887.5 451L900 445L900 323L887.5 323C875 323 850 323 825 312C800 301 775 279 750 272C725 265 700 273 675 285C650 297 625 313 600 320C575 327 550 325 525 323C500 321 475 319 450 312C425 305 400 293 375 289C350 285 325 289 300 289C275 289 250 285 225 291C200 297 175 313 150 317C125 321 100 313 75 309C50 305 25 305 12.5 305L0 305Z" fill="#710007"></path><path d="M0 517L12.5 519C25 521 50 525 75 523C100 521 125 513 150 517C175 521 200 537 225 538C250 539 275 525 300 521C325 517 350 523 375 530C400 537 425 545 450 541C475 537 500 521 525 520C550 519 575 533 600 535C625 537 650 527 675 525C700 523 725 529 750 535C775 541 800 547 825 542C850 537 875 521 887.5 513L900 505L900 443L887.5 449C875 455 850 467 825 471C800 475 775 471 750 464C725 457 700 447 675 452C650 457 625 477 600 479C575 481 550 465 525 467C500 469 475 489 450 496C425 503 400 497 375 488C350 479 325 467 300 464C275 461 250 467 225 462C200 457 175 441 150 443C125 445 100 465 75 469C50 473 25 461 12.5 455L0 449Z" fill="#830005"></path><path d="M0 601L12.5 601C25 601 50 601 75 601C100 601 125 601 150 601C175 601 200 601 225 601C250 601 275 601 300 601C325 601 350 601 375 601C400 601 425 601 450 601C475 601 500 601 525 601C550 601 575 601 600 601C625 601 650 601 675 601C700 601 725 601 750 601C775 601 800 601 825 601C850 601 875 601 887.5 601L900 601L900 503L887.5 511C875 519 850 535 825 540C800 545 775 539 750 533C725 527 700 521 675 523C650 525 625 535 600 533C575 531 550 517 525 518C500 519 475 535 450 539C425 543 400 535 375 528C350 521 325 515 300 519C275 523 250 537 225 536C200 535 175 519 150 515C125 511 100 519 75 521C50 523 25 519 12.5 517L0 515Z" fill="#950101"></path></svg>